<?xml version="1.0" encoding="UTF-8" standalone="no"?>
<!-- Created with Inkscape (http://www.inkscape.org/) -->

<svg
   width="77.010971mm"
   height="77.010971mm"
   viewBox="0 0 77.010971 77.010971"
   version="1.1"
   id="svg1"
   inkscape:version="1.4.2 (f4327f4, 2025-05-13)"
   sodipodi:docname="novellum-mark.svg"
   xmlns:inkscape="http://www.inkscape.org/namespaces/inkscape"
   xmlns:sodipodi="http://sodipodi.sourceforge.net/DTD/sodipodi-0.dtd"
   xmlns="http://www.w3.org/2000/svg"
   xmlns:svg="http://www.w3.org/2000/svg">
  <sodipodi:namedview
     id="namedview1"
     pagecolor="#1c1f24"
     bordercolor="#000000"
     borderopacity="0.25"
     inkscape:showpageshadow="2"
     inkscape:pageopacity="0.0"
     inkscape:pagecheckerboard="0"
     inkscape:deskcolor="#d1d1d1"
     inkscape:document-units="mm"
     inkscape:zoom="0.75811588"
     inkscape:cx="143.77749"
     inkscape:cy="154.9895"
     inkscape:window-width="1920"
     inkscape:window-height="991"
     inkscape:window-x="-9"
     inkscape:window-y="-9"
     inkscape:window-maximized="1"
     inkscape:current-layer="layer1" />
  <defs
     id="defs1">
    <linearGradient
       id="swatch1">
      <stop
         style="stop-color:#1e3a2f;stop-opacity:0;"
         offset="0"
         id="stop1" />
    </linearGradient>
    <clipPath
       clipPathUnits="userSpaceOnUse"
       id="clipPath84">
      <path
         id="path85"
         style="fill:#ff0000;fill-opacity:1;fill-rule:nonzero;stroke:none"
         d="M 280.37305,342.04102 V 634.12695 H 572.45898 V 342.04102 Z m 265.52539,43.62695 c 3.27148,0.0859 4.03761,3.76331 3.77148,8.89844 0.0241,0.0393 0.0494,0.0793 0.0723,0.11914 1.63286,-0.83565 3.14355,-1.21264 4.46679,-1.23438 5.9375,-0.0975 8.09452,6.95545 0.50196,11.78321 -0.45115,0.28685 -0.90438,0.5685 -1.35547,0.85546 -1.19977,0.72027 -2.42039,1.41057 -3.68945,2.00196 0.81362,0.32107 1.61509,0.64423 2.39257,0.9707 9.83053,0.59237 16.47874,2.93774 7.51953,13.10938 0.15037,-0.1144 0.24939,-0.18947 0.32618,-0.24805 0.16197,-0.3305 0.52729,-0.52961 0.80078,-0.78711 -0.018,0.0181 -0.0364,0.0358 -0.0469,0.0469 -0.1917,0.20242 -0.35681,0.37781 -0.50195,0.53321 0.10474,-0.0939 0.24581,-0.22908 0.55273,-0.51563 -0.22536,0.21094 -0.72934,0.82817 -0.83007,0.85742 h -0.002 l -0.002,0.002 h -0.002 l -0.002,-0.002 h -0.002 -0.002 l -0.002,-0.002 v -0.002 h -0.002 v -0.002 -0.002 -0.002 c -2.3e-4,-0.004 -10e-4,-0.01 0,-0.0156 -0.59091,0.63515 -0.86311,0.92501 -1.74414,1.72071 -0.0924,0.0834 0.17211,-0.18119 0.25781,-0.27149 0.42783,-0.45087 0.82832,-0.88726 1.20117,-1.31054 -0.15956,0.12139 -0.37617,0.28706 -0.67968,0.52343 -7.75376,6.03838 -11.01083,5.5006 -12.04297,1.68164 -0.20613,0.0731 -0.4147,0.14668 -0.625,0.22071 -0.52965,0.19929 -1.09682,0.37675 -1.62695,0.58984 -0.2209,0.0888 -0.74621,0.41402 -0.82422,0.42188 h -0.002 -0.002 -0.002 l -0.002,-0.002 h -0.002 v -0.002 -0.002 -0.002 -0.002 c 0.004,-0.008 0.0177,-0.0235 0.0371,-0.043 0.18017,-0.18022 0.42395,-0.27968 0.63672,-0.41992 0.84351,-0.55599 1.58482,-1.08579 2.23047,-1.58984 -0.37382,-2.15367 -0.21672,-5.08972 0.17578,-8.38282 -2.17751,-0.95674 -5.17986,-1.69617 -8.35938,-2.38672 -0.76287,0.33618 -1.52468,0.67552 -2.28515,1.01758 -2.71108,1.19335 -5.4255,2.38163 -8.09961,3.65625 -9.21584,4.39278 -14.33861,-3.26443 -8.15039,-8.53125 -2.97775,-2.49902 -2.10581,-7.806 4.66015,-10.4707 0.0983,-0.0387 0.19492,-0.0779 0.29297,-0.11719 1.04839,-0.78155 2.40528,-1.46892 4.08985,-1.98828 0.31551,-0.0973 0.5683,-0.13351 0.85351,-0.33789 0.17058,-0.11456 0.34236,-0.23128 0.51563,-0.34766 0.032,-0.0297 0.0654,-0.0581 0.0976,-0.0879 0.24903,-0.23037 0.49876,-0.45937 0.74805,-0.68945 0.22289,-0.3529 2.39774,-2.29002 2.45703,-2.39453 l 0.002,-0.002 v -0.002 c -0.0142,0.005 -0.0752,0.047 -0.18555,0.13477 1.94456,-1.70896 0.83198,-0.79672 3.38867,-2.68164 4.14386,-3.05507 7.04251,-4.31959 9.02344,-4.26758 z" />
    </clipPath>
  </defs>
  <g
     inkscape:label="Шар 1"
     inkscape:groupmode="layer"
     id="layer1"
     transform="translate(-67.133302,-107.1347)">
    <g
       id="g1">
      <circle
         style="fill:#f4efe6;fill-opacity:0;fill-rule:nonzero;stroke:#f4efe6;stroke-width:3.77953;stroke-linecap:round;stroke-dasharray:none;stroke-opacity:1"
         id="path1"
         cx="426.41599"
         cy="488.08459"
         r="143.64278"
         clip-path="url(#clipPath84)"
         transform="matrix(0.26458333,0,0,0.26458333,-7.1837752,16.501134)" />
      <circle
         style="fill:#8a7b5a;fill-opacity:1;stroke:#1e3a2f;stroke-width:2.27185;stroke-dasharray:none;stroke-opacity:0"
         id="path2"
         cx="136.86235"
         cy="124.62047"
         r="3.0255783" />
      <path
         d="m 90.113434,158.26426 v -31.76423 l 1.481902,0.12886 v 31.63537 q 0,3.35039 1.159749,4.83229 1.159749,1.41747 3.86583,1.41747 0.193291,0 0.193291,0.38658 0,0.38659 -0.193291,0.38659 -1.28861,0 -2.641651,-0.0644 -1.35304,-0.0644 -3.028233,-0.0644 -1.610763,0 -3.092664,0.0644 -1.481901,0.0644 -2.834942,0.0644 -0.128861,0 -0.128861,-0.38659 0,-0.38658 0.128861,-0.38658 2.834942,0 3.930261,-1.41747 1.159748,-1.4819 1.159748,-4.83229 z m 32.472966,7.79609 q 0,0.12886 -0.32215,0.12886 -0.32215,0.0644 -0.45101,0 L 92.17521,130.30143 q -2.190637,-2.64165 -3.93026,-3.54368 -1.675193,-0.96646 -3.221525,-0.96646 -0.193291,0 -0.193291,-0.38658 0,-0.38658 0.193291,-0.38658 1.159749,0 2.319498,0.0644 1.22418,0.0644 2.190637,0.0644 1.159749,0 2.190637,-0.0644 1.030888,-0.0644 1.546332,-0.0644 0.837596,0 1.159749,0.77316 0.322152,0.70874 1.868484,2.57722 l 25.772198,31.63537 z m 0,-33.95487 v 33.95487 l -1.4819,-1.99734 v -31.95753 q 0,-3.35039 -1.15975,-4.83229 -1.09531,-1.4819 -3.73696,-1.4819 -0.12887,0 -0.12887,-0.38658 0,-0.38658 0.12887,-0.38658 1.28861,0 2.64165,0.12886 1.41747,0.0644 3.02823,0.0644 1.54633,0 3.02823,-0.0644 1.54633,-0.12886 2.83494,-0.12886 0.1933,0 0.1933,0.38658 0,0.38658 -0.1933,0.38658 -2.77051,0 -3.99469,1.4819 -1.15975,1.4819 -1.15975,4.83229 z"
         id="text1"
         style="font-size:64.4305px;line-height:1.25;font-family:'Cormorant Garamond';-inkscape-font-specification:'Cormorant Garamond, Normal';font-variant-ligatures:none;fill:#f4efe6;stroke-width:2.68462"
         aria-label="N" />
    </g>
  </g>
</svg>
