<?xml version="1.0" encoding="UTF-8" standalone="no"?>
<!-- Created with Inkscape (http://www.inkscape.org/) -->

<svg
   width="221.27745mm"
   height="68.342674mm"
   viewBox="0 0 836.32423 258.30303"
   version="1.1"
   id="svg1"
   inkscape:version="1.4.2 (f4327f4, 2025-05-13)"
   sodipodi:docname="novellum-horizontal.svg"
   xmlns:inkscape="http://www.inkscape.org/namespaces/inkscape"
   xmlns:sodipodi="http://sodipodi.sourceforge.net/DTD/sodipodi-0.dtd"
   xmlns="http://www.w3.org/2000/svg"
   xmlns:svg="http://www.w3.org/2000/svg">
  <sodipodi:namedview
     id="namedview1"
     pagecolor="#1c1f24"
     bordercolor="#000000"
     borderopacity="0.25"
     inkscape:showpageshadow="2"
     inkscape:pageopacity="0.0"
     inkscape:pagecheckerboard="0"
     inkscape:deskcolor="#d1d1d1"
     inkscape:document-units="mm"
     inkscape:zoom="0.93"
     inkscape:cx="420.43011"
     inkscape:cy="151.07527"
     inkscape:window-width="1920"
     inkscape:window-height="991"
     inkscape:window-x="-9"
     inkscape:window-y="-9"
     inkscape:window-maximized="1"
     inkscape:current-layer="layer1" />
  <defs
     id="defs1">
    <clipPath
       clipPathUnits="userSpaceOnUse"
       id="clipPath84-6">
      <path
         id="path85-1"
         style="fill:#ff0000;fill-opacity:1;fill-rule:nonzero;stroke:none"
         d="M 280.37305,342.04102 V 634.12695 H 572.45898 V 342.04102 Z m 265.52539,43.62695 c 3.27148,0.0859 4.03761,3.76331 3.77148,8.89844 0.0241,0.0393 0.0494,0.0793 0.0723,0.11914 1.63286,-0.83565 3.14355,-1.21264 4.46679,-1.23438 5.9375,-0.0975 8.09452,6.95545 0.50196,11.78321 -0.45115,0.28685 -0.90438,0.5685 -1.35547,0.85546 -1.19977,0.72027 -2.42039,1.41057 -3.68945,2.00196 0.81362,0.32107 1.61509,0.64423 2.39257,0.9707 9.83053,0.59237 16.47874,2.93774 7.51953,13.10938 0.15037,-0.1144 0.24939,-0.18947 0.32618,-0.24805 0.16197,-0.3305 0.52729,-0.52961 0.80078,-0.78711 -0.018,0.0181 -0.0364,0.0358 -0.0469,0.0469 -0.1917,0.20242 -0.35681,0.37781 -0.50195,0.53321 0.10474,-0.0939 0.24581,-0.22908 0.55273,-0.51563 -0.22536,0.21094 -0.72934,0.82817 -0.83007,0.85742 h -0.002 l -0.002,0.002 h -0.002 l -0.002,-0.002 h -0.002 -0.002 l -0.002,-0.002 v -0.002 h -0.002 v -0.002 -0.002 -0.002 c -2.3e-4,-0.004 -10e-4,-0.01 0,-0.0156 -0.59091,0.63515 -0.86311,0.92501 -1.74414,1.72071 -0.0924,0.0834 0.17211,-0.18119 0.25781,-0.27149 0.42783,-0.45087 0.82832,-0.88726 1.20117,-1.31054 -0.15956,0.12139 -0.37617,0.28706 -0.67968,0.52343 -7.75376,6.03838 -11.01083,5.5006 -12.04297,1.68164 -0.20613,0.0731 -0.4147,0.14668 -0.625,0.22071 -0.52965,0.19929 -1.09682,0.37675 -1.62695,0.58984 -0.2209,0.0888 -0.74621,0.41402 -0.82422,0.42188 h -0.002 -0.002 -0.002 l -0.002,-0.002 h -0.002 v -0.002 -0.002 -0.002 -0.002 c 0.004,-0.008 0.0177,-0.0235 0.0371,-0.043 0.18017,-0.18022 0.42395,-0.27968 0.63672,-0.41992 0.84351,-0.55599 1.58482,-1.08579 2.23047,-1.58984 -0.37382,-2.15367 -0.21672,-5.08972 0.17578,-8.38282 -2.17751,-0.95674 -5.17986,-1.69617 -8.35938,-2.38672 -0.76287,0.33618 -1.52468,0.67552 -2.28515,1.01758 -2.71108,1.19335 -5.4255,2.38163 -8.09961,3.65625 -9.21584,4.39278 -14.33861,-3.26443 -8.15039,-8.53125 -2.97775,-2.49902 -2.10581,-7.806 4.66015,-10.4707 0.0983,-0.0387 0.19492,-0.0779 0.29297,-0.11719 1.04839,-0.78155 2.40528,-1.46892 4.08985,-1.98828 0.31551,-0.0973 0.5683,-0.13351 0.85351,-0.33789 0.17058,-0.11456 0.34236,-0.23128 0.51563,-0.34766 0.032,-0.0297 0.0654,-0.0581 0.0976,-0.0879 0.24903,-0.23037 0.49876,-0.45937 0.74805,-0.68945 0.22289,-0.3529 2.39774,-2.29002 2.45703,-2.39453 l 0.002,-0.002 v -0.002 c -0.0142,0.005 -0.0752,0.047 -0.18555,0.13477 1.94456,-1.70896 0.83198,-0.79672 3.38867,-2.68164 4.14386,-3.05507 7.04251,-4.31959 9.02344,-4.26758 z" />
    </clipPath>
  </defs>
  <g
     inkscape:label="Шар 1"
     inkscape:groupmode="layer"
     id="layer1"
     transform="translate(-140.5477,-246.19444)">
    <g
       id="g1">
      <circle
         style="fill:#000000;fill-opacity:0;stroke:#f4efe6;stroke-width:4.26603;stroke-linecap:round;stroke-dasharray:none;stroke-opacity:1"
         id="path1"
         cx="426.41599"
         cy="488.08459"
         r="143.64278"
         clip-path="url(#clipPath84-6)"
         transform="matrix(0.88595999,0,0,0.88595999,-108.08828,-57.077463)" />
      <circle
         style="fill:#8a7b5a;fill-opacity:1;stroke:#1e3a2f;stroke-width:7.60732;stroke-dasharray:none;stroke-opacity:0"
         id="path2"
         cx="374.25168"
         cy="304.96124"
         r="10.13118" />
      <path
         d="M 217.71237,417.61796 V 311.25518 l 4.96215,0.4315 v 105.93128 q 0,11.2188 3.88343,16.18095 3.88343,4.74642 12.94476,4.74642 0.64724,0 0.64724,1.29447 0,1.29448 -0.64724,1.29448 -4.31492,0 -8.84558,-0.21575 -4.53067,-0.21574 -10.14007,-0.21574 -5.39365,0 -10.3558,0.21574 -4.96216,0.21575 -9.49283,0.21575 -0.43149,0 -0.43149,-1.29448 0,-1.29447 0.43149,-1.29447 9.49283,0 13.16051,-4.74642 3.88343,-4.96215 3.88343,-16.18095 z m 108.73598,26.10527 q 0,0.43149 -1.07873,0.43149 -1.07873,0.21575 -1.51022,0 L 224.61624,323.9842 q -7.33537,-8.84559 -13.16051,-11.86603 -5.60939,-3.23619 -10.7873,-3.23619 -0.64724,0 -0.64724,-1.29448 0,-1.29447 0.64724,-1.29447 3.88343,0 7.76686,0.21574 4.09917,0.21575 7.33536,0.21575 3.88343,0 7.33537,-0.21575 3.45193,-0.21574 5.1779,-0.21574 2.8047,0 3.88343,2.58895 1.07873,2.3732 6.25663,8.62984 l 86.2984,105.93129 z m 0,-113.69814 v 113.69814 l -4.96216,-6.68813 V 330.02509 q 0,-11.2188 -3.88343,-16.18095 -3.66768,-4.96216 -12.51326,-4.96216 -0.4315,0 -0.4315,-1.29448 0,-1.29447 0.4315,-1.29447 4.31492,0 8.84558,0.43149 4.74641,0.21574 10.14006,0.21574 5.17791,0 10.14007,-0.21574 5.1779,-0.43149 9.49282,-0.43149 0.64724,0 0.64724,1.29447 0,1.29448 -0.64724,1.29448 -9.27708,0 -13.37625,4.96216 -3.88343,4.96215 -3.88343,16.18095 z"
         id="text1"
         style="font-size:215.746px;line-height:1.25;font-family:'Cormorant Garamond';-inkscape-font-specification:'Cormorant Garamond, Normal';font-variant-ligatures:none;fill:#f4efe6;stroke-width:8.98948"
         aria-label="N" />
      <path
         d="m 443.47911,411.59051 v -71.41844 l 3.33189,0.28973 v 71.12871 q 0,7.53298 2.60757,10.86488 2.60757,3.18703 8.6919,3.18703 0.4346,0 0.4346,0.86919 0,0.86919 -0.4346,0.86919 -2.8973,0 -5.93946,-0.14487 -3.04217,-0.14486 -6.80866,-0.14486 -3.62162,0 -6.95352,0.14486 -3.33189,0.14487 -6.37406,0.14487 -0.28973,0 -0.28973,-0.86919 0,-0.86919 0.28973,-0.86919 6.37406,0 8.83677,-3.18703 2.60757,-3.3319 2.60757,-10.86488 z m 73.01196,17.52867 q 0,0.28973 -0.72433,0.28973 -0.72432,0.14486 -1.01405,0 l -66.6379,-80.68981 q -4.92541,-5.93946 -8.83677,-7.96757 -3.76649,-2.17298 -7.24325,-2.17298 -0.43459,0 -0.43459,-0.86919 0,-0.86919 0.43459,-0.86919 2.60757,0 5.21514,0.14486 2.75244,0.14487 4.92541,0.14487 2.60757,0 4.92541,-0.14487 2.31784,-0.14486 3.47676,-0.14486 1.88325,0 2.60757,1.73838 0.72433,1.59352 4.20109,5.7946 l 57.946,71.12872 z m 0,-76.34386 v 76.34386 l -3.3319,-4.49082 v -71.85304 q 0,-7.53298 -2.60757,-10.86487 -2.4627,-3.3319 -8.40217,-3.3319 -0.28973,0 -0.28973,-0.86919 0,-0.86919 0.28973,-0.86919 2.8973,0 5.93947,0.28973 3.18703,0.14486 6.80865,0.14486 3.47676,0 6.80866,-0.14486 3.47676,-0.28973 6.37406,-0.28973 0.4346,0 0.4346,0.86919 0,0.86919 -0.4346,0.86919 -6.22919,0 -8.98163,3.3319 -2.60757,3.33189 -2.60757,10.86487 z m 48.38481,76.48872 q -8.54704,0 -14.9211,-4.20108 -6.37406,-4.20109 -9.85082,-11.15461 -3.47676,-7.09838 -3.47676,-15.21082 0,-7.53298 2.75244,-13.03785 2.75243,-5.50487 7.38811,-8.98163 4.63568,-3.62163 9.99569,-5.36001 5.50487,-1.73838 10.72001,-1.73838 8.83677,0 15.06596,4.34595 6.37406,4.34595 9.70596,11.15461 3.33189,6.80865 3.33189,14.34163 0,9.27136 -4.20108,15.93515 -4.20109,6.66379 -11.15461,10.28542 -6.95352,3.62162 -15.35569,3.62162 z m 4.20109,-2.75243 q 7.67784,0 12.16866,-5.36001 4.49081,-5.50487 4.49081,-17.67353 0,-9.12649 -3.04216,-16.08001 -2.8973,-7.09839 -8.11244,-11.00974 -5.21514,-4.05622 -11.87894,-4.05622 -7.67784,0 -12.02379,5.64973 -4.34595,5.64974 -4.34595,16.22488 0,8.83677 2.8973,16.22488 2.8973,7.38812 7.96757,11.73407 5.21514,4.34595 11.87894,4.34595 z m -3.18704,-67.79682 q -0.14486,0.43459 -1.01405,0.28973 -0.72433,-0.28973 -0.57946,-0.57946 l 7.67785,-34.76761 q 0.14486,-0.43459 1.44865,-0.86919 1.44865,-0.57946 3.18703,-0.86919 1.73838,-0.43459 3.04216,-0.43459 1.30379,0 1.01406,0.57946 z m 97.3493,12.74812 q 0.28973,0 0.28973,0.86919 0,0.86919 -0.28973,0.86919 -3.62162,0 -6.22919,2.31784 -2.46271,2.17297 -4.92541,8.2573 l -18.10813,43.4595 q -0.14486,0.57946 -1.59351,0.57946 -1.30379,0 -1.59352,-0.57946 l -20.2811,-43.74923 q -3.04217,-6.51892 -5.07028,-8.40217 -1.88324,-1.88324 -4.63568,-1.88324 -0.43459,0 -0.43459,-0.86919 0,-0.86919 0.43459,-0.86919 2.17298,0 4.63568,0.14486 2.60757,0.14487 5.36001,0.14487 4.92541,0 8.54703,-0.14487 3.62163,-0.14486 6.66379,-0.14486 0.4346,0 0.4346,0.86919 0,0.86919 -0.4346,0.86919 -4.49081,0 -7.09838,1.15892 -2.60757,1.01405 -1.01406,4.49081 l 18.54273,39.40328 -4.20109,5.93947 16.94921,-41.14166 q 2.17297,-5.21514 -0.4346,-7.53298 -2.4627,-2.31784 -9.99568,-2.31784 -0.28973,0 -0.28973,-0.86919 0,-0.86919 0.28973,-0.86919 3.47676,0 6.51892,0.14486 3.18703,0.14487 8.11244,0.14487 3.04217,0 4.92541,-0.14487 2.02811,-0.14486 4.92541,-0.14486 z m 32.16003,57.65627 q -8.6919,0 -14.63136,-3.91136 -5.93947,-4.05622 -8.98163,-10.43028 -2.8973,-6.37406 -2.8973,-13.47244 0,-8.83677 4.05622,-15.79029 4.05622,-7.09838 11.00974,-11.1546 7.09838,-4.20109 15.50055,-4.20109 8.25731,0 12.45839,4.34595 4.34596,4.34595 4.34596,12.16866 0,1.88325 -0.4346,2.8973 -0.28973,0.86919 -1.30378,0.86919 H 706.409 q 0.57946,-8.83676 -2.60757,-13.03785 -3.18703,-4.34595 -9.12649,-4.34595 -7.67785,0 -12.0238,6.08433 -4.20108,6.08433 -4.20108,16.65948 0,8.2573 2.60757,14.63136 2.60757,6.37406 7.67784,9.99569 5.07028,3.62162 12.31353,3.62162 4.92541,0 8.11244,-1.44865 3.18703,-1.44865 6.37406,-3.33189 0.28973,-0.28973 0.72433,0.43459 0.57946,0.57946 0.28973,1.01406 -5.07028,4.49081 -10.43029,6.51892 -5.21514,1.88325 -10.72001,1.88325 z m -19.55677,-38.53409 -0.14487,-1.88325 32.88436,-0.57946 v 2.31784 z m 52.73101,36.79571 q -0.43459,0 -0.43459,-0.86919 0,-0.86919 0.43459,-0.86919 5.64974,0 7.38812,-1.88325 1.73838,-2.02811 1.73838,-8.11244 v -74.8952 q 0,-5.07028 -1.01406,-7.38812 -1.01405,-2.46271 -3.62162,-2.46271 -2.17298,0 -6.66379,2.02811 -0.4346,0.28973 -0.86919,-0.57946 -0.4346,-0.86919 0.14486,-1.01405 l 18.54272,-8.83677 q 0.28973,-0.14486 0.72433,-0.14486 0.28973,0 0.72432,0.43459 0.57946,0.28973 0.57946,0.72433 v 92.13414 q 0,6.08433 1.59352,8.11244 1.59351,1.88325 7.38811,1.88325 0.4346,0 0.4346,0.86919 0,0.86919 -0.4346,0.86919 -2.4627,0 -5.93946,-0.14487 -3.47676,-0.14486 -7.38812,-0.14486 -3.76649,0 -7.38811,0.14486 -3.47676,0.14487 -5.93947,0.14487 z m 37.37506,0 q -0.43459,0 -0.43459,-0.86919 0,-0.86919 0.43459,-0.86919 5.64974,0 7.38812,-1.88325 1.73838,-2.02811 1.73838,-8.11244 v -74.8952 q 0,-5.07028 -1.01406,-7.38812 -1.01405,-2.46271 -3.62162,-2.46271 -2.17298,0 -6.66379,2.02811 -0.4346,0.28973 -0.86919,-0.57946 -0.4346,-0.86919 0.14486,-1.01405 l 18.54272,-8.83677 q 0.28973,-0.14486 0.72433,-0.14486 0.28973,0 0.72432,0.43459 0.57946,0.28973 0.57946,0.72433 v 92.13414 q 0,6.08433 1.59352,8.11244 1.59351,1.88325 7.38811,1.88325 0.4346,0 0.4346,0.86919 0,0.86919 -0.4346,0.86919 -2.4627,0 -5.93946,-0.14487 -3.47676,-0.14486 -7.38812,-0.14486 -3.76649,0 -7.38811,0.14486 -3.47676,0.14487 -5.93947,0.14487 z m 57.94592,1.15892 q -7.09838,0 -11.29947,-4.49082 -4.05622,-4.63568 -4.05622,-13.32758 v -22.16434 q 0,-5.64974 -1.01405,-8.11244 -0.86919,-2.60757 -3.3319,-2.60757 -2.02811,0 -4.92541,1.44865 -0.57946,0.14486 -1.01405,-0.72433 -0.28973,-0.86919 0.28973,-1.01405 l 16.08001,-7.24325 q 0.28973,-0.14487 0.57946,-0.14487 0.4346,0 0.86919,0.4346 0.57946,0.28973 0.57946,0.72432 v 34.62274 q 0,8.54703 3.04217,12.74812 3.04216,4.05622 9.12649,4.05622 5.50487,0 11.00974,-3.3319 5.64974,-3.33189 9.85082,-8.98163 l 0.72433,1.59352 q -6.66379,8.54703 -13.18272,12.60325 -6.37406,3.91136 -13.32758,3.91136 z m 31.14598,-57.22168 v 40.5622 q 0,4.92541 1.15892,7.09839 1.15892,2.17297 3.91136,2.17297 1.44865,0 3.18703,-0.43459 1.88324,-0.57946 4.49081,-1.59352 0.72433,-0.28973 1.01406,0.57946 0.28973,0.72433 -0.28973,1.01406 l -16.94921,7.96757 q -0.28973,0.14487 -0.57946,0.14487 -1.15892,0 -2.60757,-3.04217 -1.44865,-3.18703 -1.44865,-8.98163 v -28.24867 q 0,-5.64974 -1.01406,-8.11244 -0.86919,-2.60757 -3.33189,-2.60757 -2.02811,0 -4.92541,1.44865 -0.57946,0.14486 -0.86919,-0.72433 -0.28973,-0.86919 0.28973,-1.01405 l 16.08001,-7.24325 q 0.28973,-0.14487 0.4346,-0.14487 0.43459,0 0.86919,0.4346 0.57946,0.28973 0.57946,0.72432 z m 95.03145,56.06276 q -0.43459,0 -0.43459,-0.86919 0,-0.86919 0.43459,-0.86919 5.64974,0 7.38812,-1.88325 1.73838,-2.02811 1.73838,-8.11244 V 392.6132 q 0,-16.94921 -12.45839,-16.94921 -5.21514,0 -10.43028,3.47676 -5.07028,3.3319 -8.98163,9.1265 l -0.57946,-1.73838 q 6.22919,-8.6919 12.31352,-12.60326 6.08433,-3.91135 12.45839,-3.91135 7.53298,0 11.5892,4.34595 4.20109,4.20108 4.20109,13.18271 v 28.10381 q 0,6.08433 1.59351,8.11244 1.73838,1.88325 7.53298,1.88325 0.4346,0 0.4346,0.86919 0,0.86919 -0.4346,0.86919 -2.4627,0 -5.93946,-0.14487 -3.47676,-0.14486 -7.24325,-0.14486 -3.76649,0 -7.24325,0.14486 -3.3319,0.14487 -5.93947,0.14487 z m -37.37517,0 q -0.43459,0 -0.43459,-0.86919 0,-0.86919 0.43459,-0.86919 5.64974,0 7.24325,-1.88325 1.73838,-2.02811 1.73838,-8.11244 V 392.6132 q 0,-16.94921 -12.31352,-16.94921 -5.21514,0 -10.43028,3.47676 -5.07028,3.3319 -8.98163,9.1265 l -0.57946,-1.73838 q 6.08433,-8.6919 12.16866,-12.60326 6.08433,-3.91135 12.45839,-3.91135 7.53298,0 11.73406,4.20108 4.20109,4.20109 4.20109,13.03785 v 28.39354 q 0,6.08433 1.59351,8.11244 1.73838,1.88325 7.53298,1.88325 0.4346,0 0.4346,0.86919 0,0.86919 -0.4346,0.86919 -2.60757,0 -6.08433,-0.14487 -3.33189,-0.14486 -7.09838,-0.14486 -3.76649,0 -7.24325,0.14486 -3.47676,0.14487 -5.93947,0.14487 z m -37.2303,0 q -0.4346,0 -0.4346,-0.86919 0,-0.86919 0.4346,-0.86919 5.64973,0 7.24325,-1.88325 1.73838,-2.02811 1.73838,-8.11244 v -28.68327 q 0,-4.78054 -1.15892,-6.95352 -1.01406,-2.31784 -3.91136,-2.31784 -1.44865,0 -3.47676,0.57946 -1.88325,0.57946 -4.34595,1.59352 -0.57946,0.14486 -1.01406,-0.57946 -0.28973,-0.72433 0.28973,-1.01406 l 16.80435,-7.96757 q 0.43459,-0.14487 0.86919,-0.14487 1.01405,0 2.60757,3.04217 1.59351,3.04216 1.59351,8.83676 v 33.60868 q 0,6.08433 1.59352,8.11244 1.73838,1.88325 7.38811,1.88325 0.4346,0 0.4346,0.86919 0,0.86919 -0.4346,0.86919 -2.4627,0 -5.93946,-0.14487 -3.3319,-0.14486 -7.09839,-0.14486 -3.76649,0 -7.24325,0.14486 -3.47676,0.14487 -5.93946,0.14487 z"
         id="text2"
         style="font-size:144.865px;line-height:1.25;font-family:'Cormorant Garamond';-inkscape-font-specification:'Cormorant Garamond, Normal';font-variant-ligatures:none;fill:#f4efe6;stroke-width:6.03603"
         aria-label="Nóvellum" />
    </g>
  </g>
</svg>
